<?xml version="1.0" encoding="utf-8"?>
<!-- Generator: Adobe Illustrator 26.5.1, SVG Export Plug-In . SVG Version: 6.00 Build 0)  -->
<svg version="1.1" id="레이어_1" xmlns="http://www.w3.org/2000/svg" xmlns:xlink="http://www.w3.org/1999/xlink" x="0px"
	 y="0px" viewBox="0 0 512 512" style="enable-background:new 0 0 512 512;" xml:space="preserve">
<style type="text/css">
	.st0{fill:#FF7B7B;}
</style>
<path class="st0" d="M450.7,119.7c16.2-16.2,16.2-42.4,0-58.6c-16.2-16.2-42.4-16.2-58.6,0L256,197.4L119.7,61.3
	c-16.2-16.2-42.4-16.2-58.6,0s-16.2,42.4,0,58.6L197.4,256L61.3,392.3c-16.2,16.2-16.2,42.4,0,58.6c16.2,16.2,42.4,16.2,58.6,0
	L256,314.6l136.3,136.2c16.2,16.2,42.4,16.2,58.6,0c16.2-16.2,16.2-42.4,0-58.6L314.6,256L450.7,119.7z"/>
</svg>
