<?xml version="1.0" encoding="utf-8"?>
<!-- Generator: Adobe Illustrator 26.5.1, SVG Export Plug-In . SVG Version: 6.00 Build 0)  -->
<svg version="1.1" id="레이어_1" xmlns="http://www.w3.org/2000/svg" xmlns:xlink="http://www.w3.org/1999/xlink" x="0px"
	 y="0px" viewBox="0 0 512 512" style="enable-background:new 0 0 512 512;" xml:space="preserve">
<style type="text/css">
	.st0{fill:#FFFFFF;}
</style>
<path class="st0" d="M160,96c17.7,0,32-14.3,32-32s-14.3-32-32-32H96C43,32,0,75,0,128v256c0,53,43,96,96,96h64
	c17.7,0,32-14.3,32-32s-14.3-32-32-32H96c-17.7,0-32-14.3-32-32V128c0-17.7,14.3-32,32-32H160z M504.5,273.4
	c4.8-4.5,7.5-10.8,7.5-17.4s-2.7-12.9-7.5-17.4l-144-136c-7-6.6-17.2-8.4-26-4.6S320,110.5,320,120v72H192c-17.7,0-32,14.3-32,32v64
	c0,17.7,14.3,32,32,32h128v72c0,9.6,5.7,18.2,14.5,22s19,2,26-4.6L504.5,273.4z"/>
</svg>
