<?xml version="1.0" encoding="utf-8"?>
<!-- Generator: Adobe Illustrator 26.5.1, SVG Export Plug-In . SVG Version: 6.00 Build 0)  -->
<svg version="1.1" id="레이어_1" xmlns="http://www.w3.org/2000/svg" xmlns:xlink="http://www.w3.org/1999/xlink" x="0px"
	 y="0px" viewBox="0 0 512 512" style="enable-background:new 0 0 512 512;" xml:space="preserve">
<style type="text/css">
	.st0{fill:#FFFFFF;}
</style>
<path class="st0" d="M432,64H208c-8.8,0-16,7.2-16,16v16h-64V80c0-44.2,35.8-80,80-80h224c44.2,0,80,35.8,80,80v224
	c0,44.2-35.8,80-80,80h-16v-64h16c8.8,0,16-7.2,16-16V80C448,71.2,440.8,64,432,64z M0,192c0-35.3,28.7-64,64-64h256
	c35.3,0,64,28.7,64,64v256c0,35.3-28.7,64-64,64H64c-35.3,0-64-28.7-64-64V192z M64,224c0,17.7,14.3,32,32,32h192
	c17.7,0,32-14.3,32-32s-14.3-32-32-32H96C78.3,192,64,206.3,64,224z"/>
</svg>
