<?xml version="1.0" encoding="utf-8"?>
<!-- Generator: Adobe Illustrator 26.5.1, SVG Export Plug-In . SVG Version: 6.00 Build 0)  -->
<svg version="1.1" id="_x3C_Layer_x3E_" xmlns="http://www.w3.org/2000/svg" xmlns:xlink="http://www.w3.org/1999/xlink" x="0px"
	 y="0px" viewBox="0 0 2760 1840" style="enable-background:new 0 0 2760 1840;" xml:space="preserve">
<style type="text/css">
	.st0{fill:#EAEEF1;}
	.st1{fill:#31313B;}
	.st2{fill:#61616C;}
	.st3{fill:#FFFFFF;}
	.st4{fill:#FF7B7B;}
	.st5{fill:#FFFFFF;stroke:#FFFFFF;stroke-width:20;stroke-miterlimit:10;}
</style>
<g>
	<g>
		<path class="st0" d="M2472.08,1463.84c123.47,55.69-31.13,168.94-332.84,213.16c-230.35,33.76-575.27-2.22-776.84,40.12
			c-598.82,125.77-563.17-108.84-866.74-57.46c-173.22,29.32-431.12-96.51-191.14-189.56c107.64-41.74,421-73.75,1030.79-73.75
			S2331.85,1400.6,2472.08,1463.84z"/>
	</g>
	<g>
		<path class="st1" d="M1934.79,1564.33H837.63c-22.52,0-40.77-18.25-40.77-40.77l0,0h1165.25v13.45
			C1962.11,1552.1,1949.88,1564.33,1934.79,1564.33z"/>
	</g>
	<g>
		<polygon class="st1" points="846.92,1533.74 798.61,1535.4 578.32,504.2 619.73,495.28 		"/>
	</g>
	<g>
		<polygon class="st2" points="619.73,495.28 828.91,662.22 1010.87,1455.61 846.81,1533.22 		"/>
	</g>
	<g>
		<polygon class="st1" points="635.88,521.62 826.49,668.01 1002.23,1440.85 846.92,1489.97 		"/>
	</g>
	<g>
		<polygon class="st3" points="1962.11,1523.56 1815.9,1455.61 1010.87,1455.61 842.84,1533.78 		"/>
		<path class="st1" d="M842.84,1534.34c-0.26,0-0.49-0.18-0.54-0.43c-0.06-0.26,0.07-0.52,0.31-0.63l168.04-78.17
			c0.07-0.03,0.15-0.05,0.23-0.05h805.03c0.08,0,0.16,0.02,0.23,0.05l146.2,67.95c0.24,0.11,0.37,0.37,0.31,0.62
			c-0.05,0.26-0.28,0.44-0.54,0.44L842.84,1534.34C842.84,1534.34,842.84,1534.34,842.84,1534.34z M1011,1456.17l-165.59,77.03
			l1114.23-10.18l-143.85-66.86H1011z"/>
	</g>
	<g>
		<polygon class="st1" points="1002.23,1511.45 1534.26,1511.45 1490,1460.18 1078.77,1460.18 		"/>
	</g>
	<g>
		<path class="st3" d="M1608.35,1464.93h139.12c2.28,0,4.53,0.46,6.62,1.35l81.58,34.73c2.96,1.26,2.06,5.68-1.16,5.68h-183.51
			c-6.42,0-12.54-2.68-16.9-7.39l-27.69-29.93C1604.84,1467.68,1606.05,1464.93,1608.35,1464.93z"/>
		<path class="st1" d="M1834.52,1507.25h-183.51c-6.55,0-12.86-2.76-17.31-7.57l-27.69-29.93c-0.88-0.95-1.1-2.27-0.58-3.46
			c0.52-1.18,1.64-1.92,2.94-1.92h139.12c2.36,0,4.67,0.47,6.84,1.4l81.58,34.73c1.82,0.78,2.35,2.54,2.07,3.94
			C1837.67,1505.84,1836.5,1507.25,1834.52,1507.25z M1608.35,1465.49c-1.01,0-1.65,0.65-1.91,1.25c-0.26,0.61-0.3,1.52,0.38,2.26
			l27.69,29.93c4.24,4.58,10.25,7.21,16.49,7.21h183.51c1.45,0,2.17-1.04,2.35-1.92c0.18-0.89-0.08-2.12-1.41-2.69l-81.58-34.73
			c-2.04-0.87-4.19-1.31-6.41-1.31H1608.35z"/>
	</g>
	<g>
		
			<rect x="1080.49" y="1486.03" transform="matrix(0.68 -0.7332 0.7332 0.68 -732.0392 1296.8611)" class="st0" width="78.69" height="2.23"/>
	</g>
	<g>
		
			<rect x="1168.38" y="1486.59" transform="matrix(0.3667 -0.9304 0.9304 0.3667 -624.8508 2057.5344)" class="st0" width="60.82" height="2.23"/>
	</g>
	<g>
		
			<rect x="1278.37" y="1458.21" transform="matrix(0.997 -0.077 0.077 0.997 -110.7626 102.9863)" class="st0" width="2.23" height="57.88"/>
	</g>
	<g>
		
			<rect x="1363.2" y="1454.87" transform="matrix(0.8938 -0.4484 0.4484 0.8938 -521.9924 769.6472)" class="st0" width="2.23" height="64.56"/>
	</g>
	<g>
		
			<rect x="1439.84" y="1452.54" transform="matrix(0.8198 -0.5727 0.5727 0.8198 -592.1406 1093.3586)" class="st0" width="2.23" height="69.74"/>
	</g>
	<g>
		<path class="st2" d="M963.59,1554.92h-53.5c-3.68,0-6.69-3.01-6.69-6.69l0,0c0-3.68,3.01-6.69,6.69-6.69h53.5
			c3.68,0,6.69,3.01,6.69,6.69l0,0C970.28,1551.91,967.27,1554.92,963.59,1554.92z"/>
	</g>
	<g>
		<path class="st2" d="M1044.59,1554.92h-53.5c-3.68,0-6.69-3.01-6.69-6.69l0,0c0-3.68,3.01-6.69,6.69-6.69h53.5
			c3.68,0,6.69,3.01,6.69,6.69l0,0C1051.28,1551.91,1048.27,1554.92,1044.59,1554.92z"/>
	</g>
</g>
<path class="st4" d="M1762.13,526.45c-28.47-174.87-193.3-293.55-368.17-265.08c-174.87,28.47-293.55,193.3-265.08,368.17
	c7.45,45.77,24.25,87.7,48.12,124.14l-23.09,112.84L1256.24,837c66.89,48.88,152.57,71.98,240.81,57.61
	C1671.92,866.15,1790.6,701.32,1762.13,526.45z"/>
<path class="st5" d="M1585.12,493.56c11.24-11.24,11.24-29.41,0-40.65s-29.41-11.24-40.65,0l-94.4,94.54l-94.54-94.4
	c-11.24-11.24-29.41-11.24-40.65,0c-11.24,11.24-11.24,29.41,0,40.65l94.54,94.4l-94.4,94.54c-11.24,11.24-11.24,29.41,0,40.65
	c11.24,11.24,29.41,11.24,40.65,0l94.4-94.54l94.54,94.47c11.24,11.24,29.41,11.24,40.65,0c11.24-11.24,11.24-29.41,0-40.65
	l-94.54-94.47L1585.12,493.56z"/>
</svg>
